STARTFONT 2.1
COMMENT Recovered from arc.ast's:TR12 AST (MIT CADR AST source recovered from ARC!!!)
FONT MIT-CADR-TR12
SIZE 14 72 72
FONTBOUNDINGBOX 16 14 0 -3
STARTPROPERTIES 2
FONT_ASCENT 11
FONT_DESCENT 3
ENDPROPERTIES
CHARS 95
STARTCHAR C0018
ENCODING -1 24
SWIDTH 0 0
DWIDTH 0 0
BBX 16 14 0 -3
BITMAP
0000
0000
0000
0000
0000
0000
0000
0000
0000
0000
0000
0000
0000
0000
ENDCHAR
STARTCHAR C0020
ENCODING -1 32
SWIDTH 429 0
DWIDTH 6 0
BBX 16 14 0 -3
BITMAP
0000
0000
0000
0000
0000
0000
0000
0000
0000
0000
0000
0000
0000
0000
ENDCHAR
STARTCHAR C0021
ENCODING -1 33
SWIDTH 214 0
DWIDTH 3 0
BBX 16 14 0 -3
BITMAP
0000
4000
4000
4000
4000
4000
4000
4000
0000
4000
4000
0000
0000
0000
ENDCHAR
STARTCHAR C0022
ENCODING -1 34
SWIDTH 357 0
DWIDTH 5 0
BBX 16 14 0 -3
BITMAP
0000
5000
5000
5000
5000
0000
0000
0000
0000
0000
0000
0000
0000
0000
ENDCHAR
STARTCHAR C0023
ENCODING -1 35
SWIDTH 786 0
DWIDTH 11 0
BBX 16 14 0 -3
BITMAP
0000
0480
0480
3FC0
0900
0900
1200
1200
7F80
2400
2400
0000
0000
0000
ENDCHAR
STARTCHAR C0024
ENCODING -1 36
SWIDTH 500 0
DWIDTH 7 0
BBX 16 14 0 -3
BITMAP
1000
3800
5400
5000
5000
3000
1800
1400
1400
5400
3800
1000
0000
0000
ENDCHAR
STARTCHAR C0025
ENCODING -1 37
SWIDTH 929 0
DWIDTH 13 0
BBX 16 14 0 -3
BITMAP
0000
1980
2680
4500
4500
4A60
3290
0510
0510
0920
08C0
0000
0000
0000
ENDCHAR
STARTCHAR C0026
ENCODING -1 38
SWIDTH 786 0
DWIDTH 11 0
BBX 16 14 0 -3
BITMAP
0000
0C00
1200
1200
0C00
19C0
2880
4500
4200
4300
3CC0
0000
0000
0000
ENDCHAR
STARTCHAR C0027
ENCODING -1 39
SWIDTH 214 0
DWIDTH 3 0
BBX 16 14 0 -3
BITMAP
0000
4000
4000
4000
4000
0000
0000
0000
0000
0000
0000
0000
0000
0000
ENDCHAR
STARTCHAR C0028
ENCODING -1 40
SWIDTH 429 0
DWIDTH 6 0
BBX 16 14 0 -3
BITMAP
0000
0800
1000
2000
2000
4000
4000
4000
4000
4000
2000
2000
1000
0800
ENDCHAR
STARTCHAR C0029
ENCODING -1 41
SWIDTH 429 0
DWIDTH 6 0
BBX 16 14 0 -3
BITMAP
0000
4000
2000
1000
1000
0800
0800
0800
0800
0800
1000
1000
2000
4000
ENDCHAR
STARTCHAR C002A
ENCODING -1 42
SWIDTH 429 0
DWIDTH 6 0
BBX 16 14 0 -3
BITMAP
1000
5400
3800
5400
1000
0000
0000
0000
0000
0000
0000
0000
0000
0000
ENDCHAR
STARTCHAR C002B
ENCODING -1 43
SWIDTH 643 0
DWIDTH 9 0
BBX 16 14 0 -3
BITMAP
0000
0000
0000
0800
0800
0800
7F00
0800
0800
0800
0000
0000
0000
0000
ENDCHAR
STARTCHAR C002C
ENCODING -1 44
SWIDTH 286 0
DWIDTH 4 0
BBX 16 14 0 -3
BITMAP
0000
0000
0000
0000
0000
0000
0000
0000
0000
6000
2000
2000
4000
0000
ENDCHAR
STARTCHAR C002D
ENCODING -1 45
SWIDTH 500 0
DWIDTH 7 0
BBX 16 14 0 -3
BITMAP
0000
0000
0000
0000
0000
0000
7C00
0000
0000
0000
0000
0000
0000
0000
ENDCHAR
STARTCHAR C002E
ENCODING -1 46
SWIDTH 214 0
DWIDTH 3 0
BBX 16 14 0 -3
BITMAP
0000
0000
0000
0000
0000
0000
0000
0000
0000
4000
4000
0000
0000
0000
ENDCHAR
STARTCHAR C002F
ENCODING -1 47
SWIDTH 571 0
DWIDTH 8 0
BBX 16 14 0 -3
BITMAP
0000
0200
0200
0400
0400
0800
0800
1000
1000
2000
2000
0000
0000
0000
ENDCHAR
STARTCHAR C0030
ENCODING -1 48
SWIDTH 571 0
DWIDTH 8 0
BBX 16 14 0 -3
BITMAP
0000
1800
2400
2400
4200
4200
4200
4200
2400
2400
1800
0000
0000
0000
ENDCHAR
STARTCHAR C0031
ENCODING -1 49
SWIDTH 571 0
DWIDTH 8 0
BBX 16 14 0 -3
BITMAP
0000
0800
1800
2800
0800
0800
0800
0800
0800
0800
1C00
0000
0000
0000
ENDCHAR
STARTCHAR C0032
ENCODING -1 50
SWIDTH 571 0
DWIDTH 8 0
BBX 16 14 0 -3
BITMAP
0000
3800
4400
4400
0400
0400
0800
0800
1000
2200
7C00
0000
0000
0000
ENDCHAR
STARTCHAR C0033
ENCODING -1 51
SWIDTH 571 0
DWIDTH 8 0
BBX 16 14 0 -3
BITMAP
0000
1800
2400
0400
0800
1C00
0200
0200
0200
4400
3800
0000
0000
0000
ENDCHAR
STARTCHAR C0034
ENCODING -1 52
SWIDTH 571 0
DWIDTH 8 0
BBX 16 14 0 -3
BITMAP
0000
0C00
0C00
1400
1400
2400
2400
4400
7E00
0400
0400
0000
0000
0000
ENDCHAR
STARTCHAR C0035
ENCODING -1 53
SWIDTH 571 0
DWIDTH 8 0
BBX 16 14 0 -3
BITMAP
0000
1C00
2000
2000
7800
0400
0200
0200
0200
4400
3800
0000
0000
0000
ENDCHAR
STARTCHAR C0036
ENCODING -1 54
SWIDTH 571 0
DWIDTH 8 0
BBX 16 14 0 -3
BITMAP
0000
0C00
1000
2000
3800
4400
4200
4200
4200
2400
1800
0000
0000
0000
ENDCHAR
STARTCHAR C0037
ENCODING -1 55
SWIDTH 571 0
DWIDTH 8 0
BBX 16 14 0 -3
BITMAP
0000
3E00
4200
0200
0400
0400
0800
0800
0800
1000
1000
0000
0000
0000
ENDCHAR
STARTCHAR C0038
ENCODING -1 56
SWIDTH 571 0
DWIDTH 8 0
BBX 16 14 0 -3
BITMAP
0000
1800
2400
2400
2400
1800
2400
4200
4200
4200
3C00
0000
0000
0000
ENDCHAR
STARTCHAR C0039
ENCODING -1 57
SWIDTH 571 0
DWIDTH 8 0
BBX 16 14 0 -3
BITMAP
0000
1800
2400
4200
4200
4200
2600
1A00
0200
0400
3800
0000
0000
0000
ENDCHAR
STARTCHAR C003A
ENCODING -1 58
SWIDTH 214 0
DWIDTH 3 0
BBX 16 14 0 -3
BITMAP
0000
0000
0000
0000
4000
4000
0000
0000
0000
4000
4000
0000
0000
0000
ENDCHAR
STARTCHAR C003B
ENCODING -1 59
SWIDTH 286 0
DWIDTH 4 0
BBX 16 14 0 -3
BITMAP
0000
0000
0000
0000
2000
2000
0000
0000
0000
6000
2000
2000
4000
0000
ENDCHAR
STARTCHAR C003C
ENCODING -1 60
SWIDTH 500 0
DWIDTH 7 0
BBX 16 14 0 -3
BITMAP
0000
0400
0800
1000
2000
4000
4000
2000
1000
0800
0400
0000
0000
0000
ENDCHAR
STARTCHAR C003D
ENCODING -1 61
SWIDTH 500 0
DWIDTH 7 0
BBX 16 14 0 -3
BITMAP
0000
0000
0000
0000
0000
0000
7C00
0000
7C00
0000
0000
0000
0000
0000
ENDCHAR
STARTCHAR C003E
ENCODING -1 62
SWIDTH 500 0
DWIDTH 7 0
BBX 16 14 0 -3
BITMAP
0000
4000
2000
1000
0800
0400
0400
0800
1000
2000
4000
0000
0000
0000
ENDCHAR
STARTCHAR C003F
ENCODING -1 63
SWIDTH 500 0
DWIDTH 7 0
BBX 16 14 0 -3
BITMAP
0000
3800
4400
6400
0400
0800
1000
1000
0000
1000
1000
0000
0000
0000
ENDCHAR
STARTCHAR C0040
ENCODING -1 64
SWIDTH 1000 0
DWIDTH 14 0
BBX 16 14 0 -3
BITMAP
07C0
1820
2010
2348
44C8
4848
4888
4890
2760
2000
1810
07E0
0000
0000
ENDCHAR
STARTCHAR C0041
ENCODING -1 65
SWIDTH 786 0
DWIDTH 11 0
BBX 16 14 0 -3
BITMAP
0000
0400
0400
0A00
0A00
1100
1100
1F00
2080
2080
71C0
0000
0000
0000
ENDCHAR
STARTCHAR C0042
ENCODING -1 66
SWIDTH 643 0
DWIDTH 9 0
BBX 16 14 0 -3
BITMAP
0000
7C00
2200
2200
2200
3C00
2200
2100
2100
2100
7E00
0000
0000
0000
ENDCHAR
STARTCHAR C0043
ENCODING -1 67
SWIDTH 714 0
DWIDTH 10 0
BBX 16 14 0 -3
BITMAP
0000
0E80
3180
2080
4000
4000
4000
4000
2080
3080
0F00
0000
0000
0000
ENDCHAR
STARTCHAR C0044
ENCODING -1 68
SWIDTH 786 0
DWIDTH 11 0
BBX 16 14 0 -3
BITMAP
0000
7E00
2180
2080
2040
2040
2040
2040
2080
2180
7E00
0000
0000
0000
ENDCHAR
STARTCHAR C0045
ENCODING -1 69
SWIDTH 714 0
DWIDTH 10 0
BBX 16 14 0 -3
BITMAP
0000
7F00
2100
2100
2400
3C00
2400
2000
2080
2080
7F80
0000
0000
0000
ENDCHAR
STARTCHAR C0046
ENCODING -1 70
SWIDTH 643 0
DWIDTH 9 0
BBX 16 14 0 -3
BITMAP
0000
7F00
2100
2100
2400
3C00
2400
2000
2000
2000
7800
0000
0000
0000
ENDCHAR
STARTCHAR C0047
ENCODING -1 71
SWIDTH 857 0
DWIDTH 12 0
BBX 16 14 0 -3
BITMAP
0000
0F40
30C0
2040
4000
4000
41E0
4040
2040
30C0
0F80
0000
0000
0000
ENDCHAR
STARTCHAR C0048
ENCODING -1 72
SWIDTH 786 0
DWIDTH 11 0
BBX 16 14 0 -3
BITMAP
0000
71C0
2080
2080
2080
3F80
2080
2080
2080
2080
71C0
0000
0000
0000
ENDCHAR
STARTCHAR C0049
ENCODING -1 73
SWIDTH 357 0
DWIDTH 5 0
BBX 16 14 0 -3
BITMAP
0000
7000
2000
2000
2000
2000
2000
2000
2000
2000
7000
0000
0000
0000
ENDCHAR
STARTCHAR C004A
ENCODING -1 74
SWIDTH 500 0
DWIDTH 7 0
BBX 16 14 0 -3
BITMAP
0000
1C00
0800
0800
0800
0800
0800
0800
4800
4800
3000
0000
0000
0000
ENDCHAR
STARTCHAR C004B
ENCODING -1 75
SWIDTH 786 0
DWIDTH 11 0
BBX 16 14 0 -3
BITMAP
0000
7780
2200
2400
2800
3800
2C00
2600
2300
2180
73C0
0000
0000
0000
ENDCHAR
STARTCHAR C004C
ENCODING -1 76
SWIDTH 643 0
DWIDTH 9 0
BBX 16 14 0 -3
BITMAP
0000
7000
2000
2000
2000
2000
2000
2000
2100
2100
7F00
0000
0000
0000
ENDCHAR
STARTCHAR C004D
ENCODING -1 77
SWIDTH 929 0
DWIDTH 13 0
BBX 16 14 0 -3
BITMAP
0000
7070
3060
28A0
28A0
28A0
2520
2520
2520
2220
7270
0000
0000
0000
ENDCHAR
STARTCHAR C004E
ENCODING -1 78
SWIDTH 857 0
DWIDTH 12 0
BBX 16 14 0 -3
BITMAP
0000
70E0
3040
2840
2C40
2440
2240
2340
2140
20C0
70C0
0000
0000
0000
ENDCHAR
STARTCHAR C004F
ENCODING -1 79
SWIDTH 786 0
DWIDTH 11 0
BBX 16 14 0 -3
BITMAP
0000
0E00
3180
2080
4040
4040
4040
4040
2080
3180
0E00
0000
0000
0000
ENDCHAR
STARTCHAR C0050
ENCODING -1 80
SWIDTH 643 0
DWIDTH 9 0
BBX 16 14 0 -3
BITMAP
0000
7E00
2100
2100
2100
2100
3E00
2000
2000
2000
7800
0000
0000
0000
ENDCHAR
STARTCHAR C0051
ENCODING -1 81
SWIDTH 786 0
DWIDTH 11 0
BBX 16 14 0 -3
BITMAP
0000
0E00
3180
2080
4040
4040
4040
4040
2080
3180
0E00
0400
0200
0180
ENDCHAR
STARTCHAR C0052
ENCODING -1 82
SWIDTH 714 0
DWIDTH 10 0
BBX 16 14 0 -3
BITMAP
0000
7E00
2100
2100
2100
3E00
2400
2200
2200
2100
7180
0000
0000
0000
ENDCHAR
STARTCHAR C0053
ENCODING -1 83
SWIDTH 571 0
DWIDTH 8 0
BBX 16 14 0 -3
BITMAP
0000
3400
4C00
4400
2000
1800
0400
4200
4200
6200
5C00
0000
0000
0000
ENDCHAR
STARTCHAR C0054
ENCODING -1 84
SWIDTH 786 0
DWIDTH 11 0
BBX 16 14 0 -3
BITMAP
0000
7FC0
4440
4440
0400
0400
0400
0400
0400
0400
1F00
0000
0000
0000
ENDCHAR
STARTCHAR C0055
ENCODING -1 85
SWIDTH 786 0
DWIDTH 11 0
BBX 16 14 0 -3
BITMAP
0000
71C0
2080
2080
2080
2080
2080
2080
2080
3180
1F00
0000
0000
0000
ENDCHAR
STARTCHAR C0056
ENCODING -1 86
SWIDTH 786 0
DWIDTH 11 0
BBX 16 14 0 -3
BITMAP
0000
71C0
2080
2080
1100
1100
1100
0A00
0A00
0400
0400
0000
0000
0000
ENDCHAR
STARTCHAR C0057
ENCODING -1 87
SWIDTH 1000 0
DWIDTH 14 0
BBX 16 14 0 -3
BITMAP
0000
7738
2210
2310
3110
1320
13A0
14A0
0CC0
0840
0840
0000
0000
0000
ENDCHAR
STARTCHAR C0058
ENCODING -1 88
SWIDTH 786 0
DWIDTH 11 0
BBX 16 14 0 -3
BITMAP
0000
71C0
2080
1100
0A00
0C00
0600
0A00
1100
2080
71C0
0000
0000
0000
ENDCHAR
STARTCHAR C0059
ENCODING -1 89
SWIDTH 786 0
DWIDTH 11 0
BBX 16 14 0 -3
BITMAP
0000
71C0
2080
1100
1100
0A00
0400
0400
0400
0400
0E00
0000
0000
0000
ENDCHAR
STARTCHAR C005A
ENCODING -1 90
SWIDTH 643 0
DWIDTH 9 0
BBX 16 14 0 -3
BITMAP
0000
7E00
4200
4200
0400
0800
1000
2000
4100
4100
7F00
0000
0000
0000
ENDCHAR
STARTCHAR C005B
ENCODING -1 91
SWIDTH 429 0
DWIDTH 6 0
BBX 16 14 0 -3
BITMAP
7800
4000
4000
4000
4000
4000
4000
4000
4000
4000
4000
4000
4000
7800
ENDCHAR
STARTCHAR C005C
ENCODING -1 92
SWIDTH 500 0
DWIDTH 7 0
BBX 16 14 0 -3
BITMAP
0000
4000
4000
2000
2000
1000
1000
0800
0800
0400
0400
0000
0000
0000
ENDCHAR
STARTCHAR C005D
ENCODING -1 93
SWIDTH 429 0
DWIDTH 6 0
BBX 16 14 0 -3
BITMAP
7800
0800
0800
0800
0800
0800
0800
0800
0800
0800
0800
0800
0800
7800
ENDCHAR
STARTCHAR C005E
ENCODING -1 94
SWIDTH 643 0
DWIDTH 9 0
BBX 16 14 0 -3
BITMAP
0000
0000
0000
0800
1C00
2A00
4900
0800
0800
0800
0000
0000
0000
0000
ENDCHAR
STARTCHAR C005F
ENCODING -1 95
SWIDTH 643 0
DWIDTH 9 0
BBX 16 14 0 -3
BITMAP
0000
0000
0000
0800
1000
2000
7F00
2000
1000
0800
0000
0000
0000
0000
ENDCHAR
STARTCHAR C0061
ENCODING -1 97
SWIDTH 500 0
DWIDTH 7 0
BBX 16 14 0 -3
BITMAP
0000
0000
0000
0000
3800
4400
0C00
3400
4400
4C00
3600
0000
0000
0000
ENDCHAR
STARTCHAR C0062
ENCODING -1 98
SWIDTH 643 0
DWIDTH 9 0
BBX 16 14 0 -3
BITMAP
0000
6000
2000
2000
2C00
3200
2100
2100
2100
2200
1C00
0000
0000
0000
ENDCHAR
STARTCHAR C0063
ENCODING -1 99
SWIDTH 571 0
DWIDTH 8 0
BBX 16 14 0 -3
BITMAP
0000
0000
0000
0000
1C00
2200
4000
4000
4000
2200
1C00
0000
0000
0000
ENDCHAR
STARTCHAR C0064
ENCODING -1 100
SWIDTH 571 0
DWIDTH 8 0
BBX 16 14 0 -3
BITMAP
0000
0600
0200
0200
1A00
2600
4200
4200
4200
2600
1B00
0000
0000
0000
ENDCHAR
STARTCHAR C0065
ENCODING -1 101
SWIDTH 571 0
DWIDTH 8 0
BBX 16 14 0 -3
BITMAP
0000
0000
0000
0000
1C00
2200
4200
7E00
4000
2200
1C00
0000
0000
0000
ENDCHAR
STARTCHAR C0066
ENCODING -1 102
SWIDTH 429 0
DWIDTH 6 0
BBX 16 14 0 -3
BITMAP
0000
1800
2400
2000
7000
2000
2000
2000
2000
2000
7000
0000
0000
0000
ENDCHAR
STARTCHAR C0067
ENCODING -1 103
SWIDTH 571 0
DWIDTH 8 0
BBX 16 14 0 -3
BITMAP
0000
0000
0000
0000
1A00
2400
2400
2400
1800
2000
3C00
4200
4200
3C00
ENDCHAR
STARTCHAR C0068
ENCODING -1 104
SWIDTH 643 0
DWIDTH 9 0
BBX 16 14 0 -3
BITMAP
0000
6000
2000
2000
2C00
3200
2200
2200
2200
2200
7700
0000
0000
0000
ENDCHAR
STARTCHAR C0069
ENCODING -1 105
SWIDTH 357 0
DWIDTH 5 0
BBX 16 14 0 -3
BITMAP
0000
2000
2000
0000
6000
2000
2000
2000
2000
2000
7000
0000
0000
0000
ENDCHAR
STARTCHAR C006A
ENCODING -1 106
SWIDTH 286 0
DWIDTH 4 0
BBX 16 14 0 -3
BITMAP
0000
2000
2000
0000
6000
2000
2000
2000
2000
2000
2000
2000
A000
4000
ENDCHAR
STARTCHAR C006B
ENCODING -1 107
SWIDTH 571 0
DWIDTH 8 0
BBX 16 14 0 -3
BITMAP
0000
6000
2000
2000
2600
2400
2800
3800
2400
2200
7300
0000
0000
0000
ENDCHAR
STARTCHAR C006C
ENCODING -1 108
SWIDTH 357 0
DWIDTH 5 0
BBX 16 14 0 -3
BITMAP
0000
6000
2000
2000
2000
2000
2000
2000
2000
2000
7000
0000
0000
0000
ENDCHAR
STARTCHAR C006D
ENCODING -1 109
SWIDTH 929 0
DWIDTH 13 0
BBX 16 14 0 -3
BITMAP
0000
0000
0000
0000
6CC0
3320
2220
2220
2220
2220
7770
0000
0000
0000
ENDCHAR
STARTCHAR C006E
ENCODING -1 110
SWIDTH 643 0
DWIDTH 9 0
BBX 16 14 0 -3
BITMAP
0000
0000
0000
0000
6C00
3200
2200
2200
2200
2200
7700
0000
0000
0000
ENDCHAR
STARTCHAR C006F
ENCODING -1 111
SWIDTH 571 0
DWIDTH 8 0
BBX 16 14 0 -3
BITMAP
0000
0000
0000
0000
1800
2400
4200
4200
4200
2400
1800
0000
0000
0000
ENDCHAR
STARTCHAR C0070
ENCODING -1 112
SWIDTH 643 0
DWIDTH 9 0
BBX 16 14 0 -3
BITMAP
0000
0000
0000
0000
6C00
3200
2100
2100
2100
3200
2C00
2000
2000
7000
ENDCHAR
STARTCHAR C0071
ENCODING -1 113
SWIDTH 571 0
DWIDTH 8 0
BBX 16 14 0 -3
BITMAP
0000
0000
0000
0000
1A00
2600
4200
4200
4200
2600
1A00
0200
0200
0700
ENDCHAR
STARTCHAR C0072
ENCODING -1 114
SWIDTH 429 0
DWIDTH 6 0
BBX 16 14 0 -3
BITMAP
0000
0000
0000
0000
7800
2800
2000
2000
2000
2000
7000
0000
0000
0000
ENDCHAR
STARTCHAR C0073
ENCODING -1 115
SWIDTH 429 0
DWIDTH 6 0
BBX 16 14 0 -3
BITMAP
0000
0000
0000
0000
3000
4800
4000
3000
0800
4800
3000
0000
0000
0000
ENDCHAR
STARTCHAR C0074
ENCODING -1 116
SWIDTH 357 0
DWIDTH 5 0
BBX 16 14 0 -3
BITMAP
0000
0000
2000
2000
7000
2000
2000
2000
2000
2800
1000
0000
0000
0000
ENDCHAR
STARTCHAR C0075
ENCODING -1 117
SWIDTH 643 0
DWIDTH 9 0
BBX 16 14 0 -3
BITMAP
0000
0000
0000
0000
6600
2200
2200
2200
2200
2600
1B00
0000
0000
0000
ENDCHAR
STARTCHAR C0076
ENCODING -1 118
SWIDTH 571 0
DWIDTH 8 0
BBX 16 14 0 -3
BITMAP
0000
0000
0000
0000
EE00
4400
4400
2800
2800
1000
1000
0000
0000
0000
ENDCHAR
STARTCHAR C0077
ENCODING -1 119
SWIDTH 786 0
DWIDTH 11 0
BBX 16 14 0 -3
BITMAP
0000
0000
0000
0000
EEE0
4440
2480
2E80
2A80
1100
1100
0000
0000
0000
ENDCHAR
STARTCHAR C0078
ENCODING -1 120
SWIDTH 643 0
DWIDTH 9 0
BBX 16 14 0 -3
BITMAP
0000
0000
0000
0000
7700
2200
1C00
0800
1400
2200
7700
0000
0000
0000
ENDCHAR
STARTCHAR C0079
ENCODING -1 121
SWIDTH 571 0
DWIDTH 8 0
BBX 16 14 0 -3
BITMAP
0000
0000
0000
0000
E700
4200
2200
2400
1400
1800
0800
0800
5000
3000
ENDCHAR
STARTCHAR C007A
ENCODING -1 122
SWIDTH 500 0
DWIDTH 7 0
BBX 16 14 0 -3
BITMAP
0000
0000
0000
0000
7C00
4400
0800
1000
2000
4400
7C00
0000
0000
0000
ENDCHAR
STARTCHAR C007B
ENCODING -1 123
SWIDTH 500 0
DWIDTH 7 0
BBX 16 14 0 -3
BITMAP
0C00
1000
1000
1000
1000
1000
6000
1000
1000
1000
1000
1000
1000
0C00
ENDCHAR
STARTCHAR C007C
ENCODING -1 124
SWIDTH 214 0
DWIDTH 3 0
BBX 16 14 0 -3
BITMAP
0000
4000
4000
4000
4000
4000
4000
4000
4000
4000
4000
4000
4000
0000
ENDCHAR
STARTCHAR C007D
ENCODING -1 125
SWIDTH 500 0
DWIDTH 7 0
BBX 16 14 0 -3
BITMAP
6000
1000
1000
1000
1000
1000
0C00
1000
1000
1000
1000
1000
1000
6000
ENDCHAR
STARTCHAR C007E
ENCODING -1 126
SWIDTH 643 0
DWIDTH 9 0
BBX 16 14 0 -3
BITMAP
0000
0000
0000
0000
3100
4900
4600
0000
0000
0000
0000
0000
0000
0000
ENDCHAR
ENDFONT
